<svg class="svg-icon" style="width: 1em; height: 1em;vertical-align: middle;fill: currentColor;overflow: hidden;" viewBox="0 0 1024 1024" version="1.1" xmlns="http://www.w3.org/2000/svg"><path d="M737.718857 292.571429L637.805714 192.658286a73.142857 73.142857 0 1 1 103.424-103.424l229.229715 229.229714a73.142857 73.142857 0 0 1-79.798858 119.222857C886.491429 438.418286 882.102857 438.857143 877.714286 438.857143H73.142857a73.142857 73.142857 0 1 1 0-146.285714h664.576zM254.171429 731.428571l99.913142 99.913143a73.142857 73.142857 0 1 1-103.424 103.424L21.430857 705.536a73.142857 73.142857 0 0 1 79.725714-119.222857C105.472 585.581714 109.714286 585.142857 114.249143 585.142857h804.571428a73.142857 73.142857 0 1 1 0 146.285714H254.171429z"  /></svg>